<?xml version="1.0" standalone="no"?>
<!DOCTYPE svg PUBLIC "-//W3C//DTD SVG 20010904//EN"
 "http://www.w3.org/TR/2001/REC-SVG-20010904/DTD/svg10.dtd">
<svg version="1.0" xmlns="http://www.w3.org/2000/svg"
 width="40.000000pt" height="40.000000pt" viewBox="0 0 40.000000 40.000000"
 preserveAspectRatio="xMidYMid meet">

<g transform="translate(0.000000,40.000000) scale(0.100000,-0.100000)"
fill="#000000" stroke="none">
<path d="M220 281 l0 -61 61 0 62 0 -7 33 c-4 17 -17 42 -29 54 -12 12 -37 25
-54 29 l-33 7 0 -62z" fill="#869AB8"/>
<path d="M124 316 c-108 -47 -107 -204 2 -256 74 -36 160 -6 190 66 28 66 22
74 -51 74 l-65 0 0 65 c0 61 -1 65 -22 65 -13 -1 -37 -7 -54 -14z m56 -71 l0
-65 65 0 c55 0 65 -3 65 -17 -1 -54 -63 -103 -129 -103 -37 0 -49 6 -82 39
-33 33 -39 45 -39 82 0 66 49 128 103 129 14 0 17 -10 17 -65z" fill="#869AB8"/>
</g>
</svg>
