<?xml version="1.0" standalone="no"?>
<!DOCTYPE svg PUBLIC "-//W3C//DTD SVG 20010904//EN"
 "http://www.w3.org/TR/2001/REC-SVG-20010904/DTD/svg10.dtd">
<svg version="1.0" xmlns="http://www.w3.org/2000/svg"
 width="40.000000pt" height="40.000000pt" viewBox="0 0 40.000000 40.000000"
 preserveAspectRatio="xMidYMid meet">

<g transform="translate(0.000000,40.000000) scale(0.100000,-0.100000)"
fill="#000000" stroke="none">
<path d="M160 280 c-8 -14 -8 -26 1 -41 9 -17 8 -23 -2 -30 -27 -17 -44 -4
-29 21 12 19 -6 50 -30 50 -24 0 -42 -31 -30 -50 5 -8 7 -17 5 -21 -3 -3 7 -4
20 -1 30 5 42 -17 25 -47 -8 -15 -8 -27 0 -41 9 -17 21 -20 81 -20 63 0 70 2
78 23 10 25 -2 54 -31 78 -17 13 -18 19 -9 37 17 32 -2 62 -39 62 -19 0 -33
-7 -40 -20z m68 -21 c3 -28 -16 -43 -43 -33 -15 6 -21 45 -8 58 16 16 48 1 51
-25z m-105 -1 c7 -21 -4 -38 -23 -38 -10 0 -20 6 -23 13 -7 20 4 37 23 37 10
0 20 -6 23 -12z m121 -69 c17 -14 26 -30 26 -50 l0 -29 -70 0 -70 0 0 29 c0
32 39 71 70 71 10 0 29 -9 44 -21z" fill="#869AB8"/>
<path d="M270 258 c-10 -21 -10 -21 3 -5 17 20 43 22 50 4 8 -21 -9 -40 -30
-35 -11 3 -20 0 -20 -6 0 -6 13 -11 28 -11 15 0 26 2 24 5 -2 3 0 12 5 20 12
19 -6 50 -30 50 -11 0 -24 -10 -30 -22z" fill="#869AB8"/>
</g>
</svg>
