<?xml version="1.0" standalone="no"?>
<!DOCTYPE svg PUBLIC "-//W3C//DTD SVG 20010904//EN"
 "http://www.w3.org/TR/2001/REC-SVG-20010904/DTD/svg10.dtd">
<svg version="1.0" xmlns="http://www.w3.org/2000/svg"
 width="40.000000pt" height="40.000000pt" viewBox="0 0 40.000000 40.000000"
 preserveAspectRatio="xMidYMid meet">

<g transform="translate(0.000000,40.000000) scale(0.100000,-0.100000)"
fill="#000000" stroke="none">
<path d="M270 205 c0 -94 -3 -115 -15 -115 -11 0 -15 19 -17 88 l-3 87 -35 0
-35 0 -3 -87 c-2 -68 -6 -88 -17 -88 -10 0 -15 16 -17 58 l-3 57 -37 3 -36 3
-4 -66 c-1 -37 -1 -68 2 -70 12 -6 300 1 300 8 0 4 0 59 0 122 l0 115 -40 0
-40 0 0 -115z m70 -5 l0 -110 -30 0 -30 0 0 110 0 110 30 0 30 0 0 -110z
m-110 -25 l0 -85 -30 0 -30 0 0 85 0 85 30 0 30 0 0 -85z m-110 -30 c0 -54 0
-55 -30 -55 -30 0 -30 1 -30 55 0 54 0 55 30 55 30 0 30 -1 30 -55z" fill="#869AB8"/>
</g>
</svg>
