<?xml version="1.0" standalone="no"?>
<!DOCTYPE svg PUBLIC "-//W3C//DTD SVG 20010904//EN"
 "http://www.w3.org/TR/2001/REC-SVG-20010904/DTD/svg10.dtd">
<svg version="1.0" xmlns="http://www.w3.org/2000/svg"
 width="40.000000pt" height="40.000000pt" viewBox="0 0 40.000000 40.000000"
 preserveAspectRatio="xMidYMid meet">

<g transform="translate(0.000000,40.000000) scale(0.100000,-0.100000)"
fill="#000000" stroke="none">
<path d="M170 325 c-10 -27 -17 -30 -40 -15 -22 14 -52 -17 -40 -41 14 -25 13
-28 -15 -39 -33 -13 -33 -47 0 -60 27 -10 30 -17 15 -40 -14 -22 17 -52 41
-40 25 14 28 13 39 -15 6 -15 17 -25 30 -25 13 0 24 10 30 25 11 28 14 29 39
15 24 -12 55 18 41 40 -15 23 -12 30 15 40 15 6 25 17 25 30 0 13 -10 24 -25
30 -27 10 -30 17 -15 40 14 22 -17 52 -41 40 -25 -14 -28 -13 -39 15 -6 15
-17 25 -30 25 -13 0 -24 -10 -30 -25z m50 -16 c9 -15 19 -19 43 -17 30 3 32 1
29 -26 -2 -22 3 -35 20 -48 l23 -18 -24 -19 c-18 -14 -22 -24 -17 -44 7 -30
-8 -44 -29 -27 -11 9 -19 6 -40 -16 l-25 -27 -25 27 c-21 22 -29 25 -40 16
-21 -17 -36 -3 -29 27 5 20 1 30 -17 44 l-24 19 23 18 c17 13 22 26 20 48 -3
27 -1 29 29 26 24 -2 34 2 43 17 14 27 26 27 40 0z" fill="#869AB8"/>
<path d="M160 240 c-11 -11 -20 -29 -20 -40 0 -26 34 -60 60 -60 11 0 29 9 40
20 25 25 25 55 0 80 -11 11 -29 20 -40 20 -11 0 -29 -9 -40 -20z m75 -40 c0
-32 -3 -35 -33 -38 -26 -3 -34 1 -41 20 -14 36 4 60 42 56 29 -3 32 -6 32 -38z" fill="#869AB8"/>
</g>
</svg>


